<svg width="328" height="12" viewBox="0 0 328 12" fill="none" xmlns="http://www.w3.org/2000/svg">
<path fill-rule="evenodd" clip-rule="evenodd" d="M0 12L0 0L328 0V12H322.659C321.835 9.66962 319.612 8 317 8C314.388 8 312.165 9.66962 311.341 12H306.659C305.835 9.66962 303.612 8 301 8C298.388 8 296.165 9.66962 295.341 12H290.659C289.835 9.66962 287.612 8 285 8C282.388 8 280.165 9.66962 279.341 12L274.659 12C273.835 9.66962 271.612 8 269 8C266.388 8 264.165 9.66962 263.341 12H258.659C257.835 9.66962 255.612 8 253 8C250.388 8 248.165 9.66962 247.341 12L242.659 12C241.835 9.66962 239.612 8 237 8C234.388 8 232.165 9.66962 231.341 12H226.659C225.835 9.66962 223.612 8 221 8C218.388 8 216.165 9.66962 215.341 12H210.659C209.835 9.66962 207.612 8 205 8C202.388 8 200.165 9.66962 199.341 12H194.659C193.835 9.66962 191.612 8 189 8C186.388 8 184.165 9.66962 183.341 12H178.659C177.835 9.66962 175.612 8 173 8C170.388 8 168.165 9.66962 167.341 12H162.659C161.835 9.66962 159.612 8 157 8C154.388 8 152.165 9.66962 151.341 12H146.659C145.835 9.66962 143.612 8 141 8C138.388 8 136.165 9.66962 135.341 12H130.659C129.835 9.66962 127.612 8 125 8C122.388 8 120.165 9.66962 119.341 12H114.659C113.835 9.66962 111.612 8 109 8C106.388 8 104.165 9.66962 103.341 12L98.6586 12C97.8349 9.66962 95.6124 8 93 8C90.3876 8 88.1651 9.66962 87.3414 12H82.6586C81.8349 9.66962 79.6124 8 77 8C74.3876 8 72.1651 9.66962 71.3414 12H66.6586C65.8349 9.66962 63.6124 8 61 8C58.3876 8 56.1651 9.66962 55.3414 12H50.6586C49.8349 9.66962 47.6124 8 45 8C42.3876 8 40.1651 9.66962 39.3414 12H34.6586C33.8349 9.66962 31.6124 8 29 8C26.3876 8 24.1651 9.66962 23.3414 12H18.6586C17.8349 9.66962 15.6124 8 13 8C10.3876 8 8.16508 9.66962 7.34141 12H0Z" fill="#DDEBF8"/>
</svg>
